# xmcd CD database file
#
# Track frame offsets:
#	150
#	16687
#	37400
#
# Disc length: 716 seconds
#
# Revision: 0
# Processed by: cddbd v1.5PL3 Copyright (c) Steve Scherf et al.
# Submitted via: CDex 1.50beta9
#
DISCID=1d02ca03
DTITLE=大黒摩季 - チョット
DYEAR=1993
DGENRE=J-POP
TTITLE0=チョット
TTITLE1=君に愛されるそのために…
TTITLE2=チョット　カラオケ
EXTD=YEAR: 1993
EXTT0=
EXTT1=
EXTT2=
PLAYORDER=
